<?xml version="1.0" encoding="utf-8"?>
<!-- Generator: Adobe Illustrator 18.1.1, SVG Export Plug-In . SVG Version: 6.00 Build 0)  -->
<svg version="1.1" id="Слой_1" xmlns="http://www.w3.org/2000/svg" xmlns:xlink="http://www.w3.org/1999/xlink" x="0px" y="0px"
	 viewBox="-927 509 64 64" enable-background="new -927 509 64 64" xml:space="preserve">
<g>
	<path fill="#000099" d="M-913.3,509c12.2,0,24.3,0,36.5,0c0.2,0.1,0.3,0.2,0.5,0.3c4.2,1.9,6.3,5.2,6.3,9.8c0,14.8,0,29.6,0,44.3
		c0,3.2-1.3,5.9-3.9,7.9c-0.9,0.7-1.9,1.2-2.9,1.7c-12.2,0-24.3,0-36.5,0c-0.2-0.1-0.3-0.2-0.5-0.3c-4.1-1.9-6.3-5.2-6.2-9.8
		c0-14.7,0-29.5,0-44.2c0-2.4,0.6-4.7,2.3-6.4C-916.4,511-914.7,510.1-913.3,509z M-875,541.1c0-7.3,0-14.6,0-21.9
		c0-3.6-2-5.6-5.6-5.6c-9.6,0-19.2,0-28.9,0c-3.6,0-5.6,2-5.6,5.6c0,14.5,0,29,0,43.5c0,3.6,2,5.6,5.6,5.7c9.6,0,19.2,0,28.7,0
		c3.6,0,5.6-2,5.6-5.7C-875,555.5-875,548.3-875,541.1z"/>
	<path fill="#000099" d="M-895,529.3c-3.9,0-7.7,0-11.6,0c-3.4,0-5.4-2-5.4-5.4c0-0.8,0-1.6,0-2.4c0.1-2.7,2.2-4.8,4.9-4.8
		c8.1,0,16.2,0,24.2,0c2.7,0,4.8,2.2,4.9,4.8c0,0.9,0,1.7,0,2.6c0,3-2.1,5.1-5.1,5.1C-887.1,529.4-891,529.3-895,529.3z"/>
	<path fill="#000099" d="M-878.2,554.5c0,2.2,0,4.4,0,6.6c0,2.3-1.1,3.4-3.4,3.4c-0.8,0-1.7,0-2.5,0c-1.8,0-3.1-1.2-3.1-3
		c0-4.6,0-9.2,0-13.9c0-1.8,1.3-3,3.1-3.1c1,0,1.9,0,2.9,0c1.8,0.1,3,1.3,3,3.1C-878.1,549.9-878.2,552.2-878.2,554.5
		C-878.2,554.5-878.2,554.5-878.2,554.5z"/>
	<path fill="#000099" d="M-907.8,542.6c-0.5,0-1,0-1.5,0c-1.6-0.1-2.8-1.2-2.9-2.8c-0.1-1.1-0.1-2.2,0-3.2c0.1-1.7,1.3-2.9,3-2.9
		c1-0.1,2.1-0.1,3.1,0c1.7,0.1,2.8,1.3,2.9,3c0,0.9,0,1.7,0,2.6c0,2.4-1.1,3.4-3.5,3.4C-907,542.6-907.4,542.6-907.8,542.6
		C-907.8,542.6-907.8,542.6-907.8,542.6z"/>
	<path fill="#000099" d="M-890.7,538.2c0,0.6,0.1,1.3,0,1.9c-0.2,1.4-1.2,2.4-2.7,2.5c-1.1,0.1-2.2,0.1-3.4,0
		c-1.6-0.1-2.8-1.2-2.9-2.8c-0.1-1.1-0.1-2.2,0-3.2c0.1-1.7,1.3-2.8,3-2.9c0.9-0.1,1.7,0,2.6,0c2.2,0,3.4,1.2,3.4,3.4
		C-890.7,537.3-890.7,537.7-890.7,538.2C-890.7,538.2-890.7,538.2-890.7,538.2z"/>
	<path fill="#000099" d="M-882.7,542.6c-0.5,0-0.9,0-1.4,0c-1.8-0.1-3-1.2-3.1-3c0-1-0.1-2,0-3c0.1-1.7,1.3-2.9,2.9-3
		c1-0.1,2.1-0.1,3.1,0c1.8,0.1,2.9,1.3,3,3.1c0,0.9,0,1.7,0,2.6c0,2.2-1.1,3.3-3.3,3.3C-881.9,542.6-882.3,542.6-882.7,542.6z"/>
	<path fill="#000099" d="M-903.2,549.1c0,0.5,0,1,0,1.5c-0.1,1.8-1.2,2.9-2.9,2.9c-1,0-2.1,0-3.1,0c-1.7-0.1-2.9-1.2-3-2.9
		c-0.1-1-0.1-2.1,0-3.1c0.1-1.7,1.3-2.9,3.1-3c0.9,0,1.7,0,2.6,0c2.1,0,3.3,1.2,3.3,3.3C-903.2,548.3-903.2,548.7-903.2,549.1z"/>
	<path fill="#000099" d="M-890.7,549.2c0,0.6,0,1.2,0,1.7c-0.1,1.5-1.2,2.5-2.7,2.6c-1.1,0.1-2.2,0.1-3.4,0
		c-1.7-0.1-2.8-1.2-2.9-2.8c-0.1-1.1-0.1-2.2,0-3.2c0.1-1.7,1.3-2.8,3-2.9c0.8-0.1,1.7,0,2.5,0c2.4,0,3.5,1.2,3.5,3.5
		C-890.7,548.4-890.7,548.8-890.7,549.2C-890.7,549.2-890.7,549.2-890.7,549.2z"/>
	<path fill="#000099" d="M-903.2,560.1c0,0.5,0,1.1,0,1.6c-0.1,1.7-1.2,2.8-2.8,2.9c-1.1,0.1-2.2,0.1-3.2,0
		c-1.6-0.1-2.8-1.2-2.9-2.8c-0.1-1.1-0.1-2.2,0-3.2c0.1-1.6,1.3-2.8,2.9-2.9c1.1-0.1,2.2-0.1,3.2,0c1.7,0.1,2.8,1.3,2.9,3
		C-903.2,559.1-903.2,559.6-903.2,560.1C-903.2,560.1-903.2,560.1-903.2,560.1z"/>
	<path fill="#000099" d="M-890.7,560.1c0,0.6,0.1,1.3,0,1.9c-0.1,1.4-1.2,2.5-2.6,2.6c-1.1,0.1-2.2,0.1-3.4,0
		c-1.7-0.1-2.9-1.2-3-2.9c-0.1-1-0.1-2.1,0-3.1c0.1-1.7,1.3-2.9,3-3c0.8,0,1.6,0,2.4,0c2.5,0,3.6,1.1,3.6,3.6
		C-890.7,559.4-890.7,559.8-890.7,560.1C-890.7,560.1-890.7,560.1-890.7,560.1z"/>
</g>
</svg>
